<svg xmlns="http://www.w3.org/2000/svg" version="1.1" xmlns:xlink="http://www.w3.org/1999/xlink" xmlns:svgjs="http://svgjs.dev/svgjs" width="1500" height="391" viewBox="0 0 1500 391"><g transform="matrix(1,0,0,1,-1.3662827028183528,1.2383683890727184)"><svg viewBox="0 0 257 67" data-background-color="#196cee" preserveAspectRatio="xMidYMid meet" height="391" width="1500" xmlns="http://www.w3.org/2000/svg" xmlns:xlink="http://www.w3.org/1999/xlink"><g id="tight-bounds" transform="matrix(1,0,0,1,0.23408976974954498,-0.2122012329101608)"><svg viewBox="0 0 256.5318204605009 67.42440246582032" height="67.42440246582032" width="256.5318204605009"><g><svg viewBox="0 0 256.5318204605009 67.42440246582032" height="67.42440246582032" width="256.5318204605009"><g><svg viewBox="0 0 256.5318204605009 67.42440246582032" height="67.42440246582032" width="256.5318204605009"><g id="textblocktransform"><svg viewBox="0 0 256.5318204605009 67.42440246582032" height="67.42440246582032" width="256.5318204605009" id="textblock"><g><svg viewBox="0 0 256.5318204605009 67.42440246582032" height="67.42440246582032" width="256.5318204605009"><g><svg><g></g><g></g></svg></g><g><svg><g><svg></svg></g><g></g></svg></g><g id="text-0"><svg viewBox="0 0 256.5318204605009 67.42440246582032" height="67.42440246582032" width="256.5318204605009"><g transform="matrix(1,0,0,1,0,0)"><svg width="173.20690000000002" viewBox="2.75 -40.72 107.04 41.67" height="67.42440246582032" data-palette-color="#cee7f7"><path d="M17.8 0.05L17.8 0.05 11.35 0.05Q9.3 0.05 7.3 0.03 5.3 0 4.03-0.08 2.75-0.15 2.75-0.25L2.75-0.25Q2.75-0.65 3.35-1.25 3.95-1.85 4.5-1.95L4.5-1.95Q4.45-2.15 4.45-2.4 4.45-2.65 4.45-2.95L4.45-2.95Q4.45-4.25 4.6-6.28 4.75-8.3 5.03-10.75 5.3-13.2 5.55-15.7L5.55-15.7 4.9-15.7Q4.4-15.7 4.4-16.05L4.4-16.05Q4.4-16.4 4.8-16.8 5.2-17.2 5.7-17.25L5.7-17.25Q6.2-21.25 6.8-25.03 7.4-28.8 8.05-31.2L8.05-31.2 5.4-31.2Q4.3-31.2 4.3-31.6L4.3-31.6Q4.3-31.85 4.93-32.13 5.55-32.4 6.4-32.4L6.4-32.4 8.35-32.4Q8.6-33.8 9.38-34.2 10.15-34.6 11.2-34.6L11.2-34.6Q11.95-34.6 11.95-34.1L11.95-34.1Q11.95-33.75 11.68-33.33 11.4-32.9 11.2-32.45L11.2-32.45Q11.7-32.45 12.98-32.43 14.25-32.4 17.4-32.4L17.4-32.4Q18.95-32.4 21.08-32.43 23.2-32.45 25.95-32.45L25.95-32.45Q26.7-32.45 26.7-31.7L26.7-31.7Q26.7-31.2 26.2-30.35 25.7-29.5 25.15-29.5L25.15-29.5Q24.8-29.5 24.48-30.13 24.15-30.75 23.45-30.8L23.45-30.8Q22.8-30.9 21.43-30.9 20.05-30.9 19.2-30.9L19.2-30.9Q18.55-30.9 17.98-30.88 17.4-30.85 16.85-30.85L16.85-30.85Q15.55-30.85 14.23-30.88 12.9-30.9 10.7-30.95L10.7-30.95Q10.2-29.2 9.65-26.65 9.1-24.1 8.68-21.58 8.25-19.05 8-17.25L8-17.25Q9.5-17.25 11.6-17.25 13.7-17.25 15.88-17.28 18.05-17.3 19.8-17.32 21.55-17.35 22.3-17.4L22.3-17.4Q22.6-17.4 22.6-17.1L22.6-17.1Q22.6-16.8 22.15-16.32 21.7-15.85 20.7-15.7L20.7-15.7 7.8-15.7Q7.7-14.4 7.5-12.5 7.3-10.6 7.18-8.55 7.05-6.5 7.05-4.65L7.05-4.65Q7.05-3.75 7.1-2.95 7.15-2.15 7.25-1.55L7.25-1.55Q9.05-1.55 12.15-1.53 15.25-1.5 20.25-1.5L20.25-1.5Q21.35-1.5 23.03-1.7 24.7-1.9 26-2.3L26-2.3 26.05-2.3Q26.25-2.3 26.25-1.8L26.25-1.8Q26.25-1.3 25.9-0.65 25.55 0 24.75 0L24.75 0Q23.1 0 21.35 0.03 19.6 0.05 17.8 0.05ZM22.39-34.9L22.39-34.9Q22.55-34.9 22.55-35.06L22.55-35.06Q22.55-35.37 21.52-36.24 20.49-37.12 18.92-38.3 17.35-39.49 15.7-40.57L15.7-40.57Q15.44-40.72 15.24-40.72L15.24-40.72Q14.77-40.72 14.49-40.28 14.21-39.85 14.26-39.43L14.26-39.43 14.26-39.33Q14.26-38.97 14.62-38.76L14.62-38.76Q15.29-38.35 16.68-37.66 18.07-36.96 19.56-36.24 21.05-35.52 22.14-34.95L22.14-34.95Q22.24-34.9 22.39-34.9ZM32.1 0.4L32.1 0.4Q30.8 0.4 29.92-0.45 29.05-1.3 29.05-3.15L29.05-3.15Q29.05-4.95 29.7-7.18 30.35-9.4 31.35-11.53 32.35-13.65 33.37-15.18 34.4-16.7 35.2-17.05L35.2-17.05Q36.75-17.6 37.6-18.18 38.45-18.75 39.7-18.75L39.7-18.75Q40.7-18.75 41.37-18.25 42.05-17.75 42.05-16.4L42.05-16.4Q42.05-16.2 42.05-16.03 42.05-15.85 42-15.6L42-15.6Q41.85-14.7 41.4-14.2 40.95-13.7 40.55-13.7L40.55-13.7Q39.95-13.7 39.95-14.6L39.95-14.6Q39.95-15.1 40.15-15.73 40.35-16.35 40.35-16.85L40.35-16.85Q40.35-17.65 39.5-17.65L39.5-17.65Q39.05-17.65 38.27-17.23 37.5-16.8 36.77-16.25 36.05-15.7 35.7-15.35L35.7-15.35Q35.3-14.95 34.55-13.5 33.8-12.05 33.02-10.1 32.25-8.15 31.7-6.23 31.15-4.3 31.15-2.95L31.15-2.95Q31.15-1.1 32.6-1.1L32.6-1.1Q34.2-1.1 35.55-1.98 36.9-2.85 37.97-3.98 39.05-5.1 39.7-5.98 40.35-6.85 40.5-6.9L40.5-6.9Q40.75-6.8 40.75-6.55L40.75-6.55Q40.75-6.05 40.02-4.93 39.3-3.8 38.07-2.58 36.85-1.35 35.3-0.48 33.75 0.4 32.1 0.4ZM44.35 0.95L44.35 0.95Q43.1 0.95 42.27-0.08 41.45-1.1 41.45-3.25L41.45-3.25Q41.45-3.75 41.5-4.33 41.55-4.9 41.65-5.55L41.65-5.55Q41.8-6.4 42.27-8.03 42.75-9.65 43.5-11.55 44.25-13.45 45.22-15.18 46.2-16.9 47.37-18 48.55-19.1 49.9-19.1L49.9-19.1 50.25-19.1Q50.25-19.75 50.65-20.28 51.05-20.8 51.75-20.8L51.75-20.8Q52.3-20.75 52.55-19.88 52.8-19 52.97-17.88 53.15-16.75 53.5-15.88 53.85-15 54.6-14.9L54.6-14.9Q55.55-14.75 55.55-14.35L55.55-14.35Q55.55-13.95 54.6-13.45L54.6-13.45Q54.25-13.3 53.95-13.25 53.65-13.2 53.45-13.2L53.45-13.2Q53.45-10.05 52.55-7.45 51.65-4.85 50.22-2.98 48.8-1.1 47.25-0.08 45.7 0.95 44.35 0.95ZM45.1-0.55L45.1-0.55Q46-0.55 47.17-1.58 48.35-2.6 49.45-4.42 50.55-6.25 51.3-8.6 52.05-10.95 52.05-13.6L52.05-13.6Q51.65-13.85 51.27-14.65 50.9-15.45 50.6-16.18 50.3-16.9 50.05-16.9L50.05-16.9Q49.35-16.9 48.55-15.93 47.75-14.95 47-13.48 46.25-12 45.6-10.35 44.95-8.7 44.5-7.28 44.05-5.85 43.9-5.1L43.9-5.1Q43.8-4.45 43.75-3.93 43.7-3.4 43.7-3L43.7-3Q43.7-0.55 45.1-0.55ZM55.04 0.85L55.04 0.85Q54.64 0.85 54.39 0.53 54.14 0.2 54.14-0.15L54.14-0.15Q54.14-0.75 54.69-0.75L54.69-0.75Q55.29-0.75 56.52-1 57.74-1.25 59.07-1.68 60.39-2.1 61.34-2.7 62.29-3.3 62.29-4L62.29-4Q62.29-4.65 61.57-5.33 60.84-6 59.79-6.7 58.74-7.4 57.67-8.15 56.59-8.9 55.87-9.73 55.14-10.55 55.14-11.5L55.14-11.5Q55.14-11.9 55.27-12.3 55.39-12.7 55.74-13.1L55.74-13.1Q57.24-15 59.02-16.18 60.79-17.35 62.34-17.98 63.89-18.6 64.69-18.9L64.69-18.9Q64.94-19 65.29-19.07 65.64-19.15 65.99-19.15L65.99-19.15Q66.69-19.15 67.24-18.73 67.79-18.3 67.79-17.15L67.79-17.15Q67.74-16.65 67.39-15.88 67.04-15.1 66.52-14.3 65.99-13.5 65.49-12.98 64.99-12.45 64.64-12.45L64.64-12.45Q64.44-12.45 64.44-12.75L64.44-12.75Q64.44-13.2 64.72-13.9 64.99-14.6 65.27-15.28 65.54-15.95 65.54-16.35L65.54-16.35Q65.54-17.1 64.64-17.1L64.64-17.1Q64.29-17.1 63.87-17.03 63.44-16.95 62.99-16.85L62.99-16.85Q62.69-16.8 61.84-16.43 60.99-16.05 60.04-15.45 59.09-14.85 58.39-14.08 57.69-13.3 57.69-12.4L57.69-12.4Q57.69-11.85 57.94-11.4L57.94-11.4Q58.54-10.2 59.59-9.53 60.64-8.85 61.69-8.33 62.74-7.8 63.47-7.18 64.19-6.55 64.19-5.4L64.19-5.4Q64.19-4.2 63.19-3.08 62.19-1.95 60.67-1.07 59.14-0.2 57.62 0.33 56.09 0.85 55.04 0.85ZM70.44 0.5L70.44 0.5Q69.84 0.5 69.07 0.23 68.29-0.05 67.72-0.78 67.14-1.5 67.14-2.85L67.14-2.85Q67.14-3.4 67.29-4.15L67.29-4.15Q67.79-6.65 68.27-7.95 68.74-9.25 68.84-10.05L68.84-10.05Q68.69-10.1 68.39-10.3 68.09-10.5 68.09-10.85L68.09-10.85Q68.09-11.2 68.39-11.3 68.69-11.4 68.94-11.4L68.94-11.4 69.29-11.4Q69.69-12.25 70.17-13.25 70.64-14.25 71.59-15.95L71.59-15.95Q72.44-17.55 73.82-18.07 75.19-18.6 76.94-18.6L76.94-18.6Q78.64-18.6 79.29-15.55L79.29-15.55Q79.59-14 79.59-13.05L79.59-13.05Q79.59-11.85 78.82-11.15 78.04-10.45 76.92-10.1 75.79-9.75 74.69-9.63 73.59-9.5 72.94-9.5L72.94-9.5Q72.29-9.5 71.82-9.53 71.34-9.55 71.14-9.55L71.14-9.55Q70.39-7.65 69.94-5.9 69.49-4.15 69.49-2.95L69.49-2.95Q69.49-0.95 70.99-0.95L70.99-0.95Q71.89-0.95 72.87-1.75 73.84-2.55 74.74-3.6 75.64-4.65 76.29-5.45 76.94-6.25 77.14-6.25L77.14-6.25Q77.49-6.25 77.49-5.85L77.49-5.85Q77.49-5.15 76.69-4.08 75.89-3 74.72-1.95 73.54-0.9 72.37-0.2 71.19 0.5 70.44 0.5ZM73.59-10.85L73.59-10.85Q75.49-10.85 76.47-11.28 77.44-11.7 77.49-13.15L77.49-13.15Q77.49-15.2 76.97-16.05 76.44-16.9 75.99-16.9L75.99-16.9Q75.39-16.9 74.72-16.18 74.04-15.45 73.42-14.45 72.79-13.45 72.29-12.48 71.79-11.5 71.59-10.95L71.59-10.95Q71.84-10.95 72.39-10.9 72.94-10.85 73.59-10.85ZM79.54 0.3L79.54 0.3Q79.24 0.3 79.09 0.05L79.09 0.05Q79.09-1.25 79.41-2.38 79.74-3.5 80.24-3.7L80.24-3.7Q80.94-6.3 81.29-7.73 81.64-9.15 81.79-9.85 81.94-10.55 82.04-10.98 82.14-11.4 82.29-12L82.29-12Q82.39-12.25 82.39-12.45 82.39-12.65 82.39-12.8L82.39-12.8Q82.39-13.2 82.29-13.28 82.19-13.35 82.19-13.65L82.19-13.65Q82.19-13.75 82.21-13.88 82.24-14 82.29-14.2L82.29-14.2Q83.09-17.3 83.89-18.48 84.69-19.65 86.34-19.65L86.34-19.65Q86.94-19.65 87.04-19.25L87.04-19.25Q86.79-18.55 85.96-16.63 85.14-14.7 84.21-12.15 83.29-9.6 82.69-7L82.69-7Q83.09-7.75 83.96-9.22 84.84-10.7 86.01-12.45 87.19-14.2 88.54-15.78 89.89-17.35 91.16-18.38 92.44-19.4 93.49-19.4L93.49-19.4Q94.09-19.4 94.39-18.98 94.69-18.55 94.69-17.9L94.69-17.9Q94.69-17.25 94.39-16.4 94.09-15.55 93.54-14.75L93.54-14.75Q93.19-14.25 92.51-13.7 91.84-13.15 91.44-13.15L91.44-13.15Q91.14-13.15 91.14-13.45L91.14-13.45Q91.14-13.7 91.39-14.28 91.64-14.85 91.86-15.48 92.09-16.1 92.09-16.5L92.09-16.5Q92.09-16.85 91.84-16.85L91.84-16.85Q90.94-16.85 89.56-15.35 88.19-13.85 86.64-11.43 85.09-9 83.74-6.23 82.39-3.45 81.59-0.9L81.59-0.9Q81.29-0.5 80.64-0.1 79.99 0.3 79.54 0.3ZM95.14 0.55L95.14 0.55Q94.84 0.55 94.84 0.3L94.84 0.3Q94.84-0.2 95.01-0.3 95.19-0.4 95.44-0.63 95.69-0.85 95.94-1.75 96.19-2.65 96.41-4.78 96.64-6.9 96.74-10.8L96.74-10.8Q96.74-11.55 96.64-11.8 96.54-12.05 96.44-12.18 96.34-12.3 96.24-12.65 96.14-13 96.14-13.9L96.14-13.9Q96.14-16.2 96.59-17.23 97.04-18.25 98.59-18.25L98.59-18.25Q99.34-18.25 99.54-17.8L99.54-17.8Q99.04-13.9 98.51-9.93 97.99-5.95 97.64-2.05L97.64-2.05Q97.94-2.35 99.04-3.28 100.14-4.2 101.56-5.75 102.99-7.3 104.39-9.53 105.79-11.75 106.74-14.75L106.74-14.75Q106.79-14.9 106.81-15.05 106.84-15.2 106.84-15.35L106.84-15.35Q106.84-15.85 106.64-16.23 106.44-16.6 106.44-17L106.44-17Q106.44-17.4 106.94-18.15 107.44-18.9 108.09-19.53 108.74-20.15 109.24-20.15L109.24-20.15Q109.79-20.15 109.79-19.1L109.79-19.1Q109.79-18.55 109.64-17.7L109.64-17.7Q109.19-15.2 107.84-12.63 106.49-10.05 104.71-7.7 102.94-5.35 101.06-3.48 99.19-1.6 97.59-0.53 95.99 0.55 95.14 0.55Z" opacity="1" transform="matrix(1,0,0,1,0,0)" fill="#cee7f7" class="wordmark-text-0" data-fill-palette-color="primary"></path></svg></g><g><svg xmlns="http://www.w3.org/2000/svg" xmlns:xlink="http://www.w3.org/1999/xlink" version="1.1" x="189.1253930419922" y="0" viewBox="0 0 30 30.008" enable-background="new 0 0 30 30" xml:space="preserve" width="67.40642741850871" height="67.42440246582032" class="icon-cg-0" data-fill-palette-color="accent" id="cg-0"></svg></g></svg></g></svg></g></svg></g></svg></g><g></g></svg></g><defs></defs><mask id="10c8f89f-b075-4b7a-af91-be8ada5bf886"><g id="SvgjsG1032"><svg viewBox="0 0 256.5318204605009 67.42440246582032" height="67.42440246582032" width="256.5318204605009"><g><svg viewBox="0 0 256.5318204605009 67.42440246582032" height="67.42440246582032" width="256.5318204605009"><g><svg viewBox="0 0 256.5318204605009 67.42440246582032" height="67.42440246582032" width="256.5318204605009"><g id="SvgjsG1031"><svg viewBox="0 0 256.5318204605009 67.42440246582032" height="67.42440246582032" width="256.5318204605009" id="SvgjsSvg1030"><g><svg viewBox="0 0 256.5318204605009 67.42440246582032" height="67.42440246582032" width="256.5318204605009"><g><svg><g></g><g></g></svg></g><g><svg><g><svg></svg></g><g></g></svg></g><g id="SvgjsG1029"><svg viewBox="0 0 256.5318204605009 67.42440246582032" height="67.42440246582032" width="256.5318204605009"><g transform="matrix(1,0,0,1,0,0)"><svg width="173.20690000000002" viewBox="2.75 -40.72 107.04 41.67" height="67.42440246582032" data-palette-color="#cee7f7"><path d="M17.8 0.05L17.8 0.05 11.35 0.05Q9.3 0.05 7.3 0.03 5.3 0 4.03-0.08 2.75-0.15 2.75-0.25L2.75-0.25Q2.75-0.65 3.35-1.25 3.95-1.85 4.5-1.95L4.5-1.95Q4.45-2.15 4.45-2.4 4.45-2.65 4.45-2.95L4.45-2.95Q4.45-4.25 4.6-6.28 4.75-8.3 5.03-10.75 5.3-13.2 5.55-15.7L5.55-15.7 4.9-15.7Q4.4-15.7 4.4-16.05L4.4-16.05Q4.4-16.4 4.8-16.8 5.2-17.2 5.7-17.25L5.7-17.25Q6.2-21.25 6.8-25.03 7.4-28.8 8.05-31.2L8.05-31.2 5.4-31.2Q4.3-31.2 4.3-31.6L4.3-31.6Q4.3-31.85 4.93-32.13 5.55-32.4 6.4-32.4L6.4-32.4 8.35-32.4Q8.6-33.8 9.38-34.2 10.15-34.6 11.2-34.6L11.2-34.6Q11.95-34.6 11.95-34.1L11.95-34.1Q11.95-33.75 11.68-33.33 11.4-32.9 11.2-32.45L11.2-32.45Q11.7-32.45 12.98-32.43 14.25-32.4 17.4-32.4L17.4-32.4Q18.95-32.4 21.08-32.43 23.2-32.45 25.95-32.45L25.95-32.45Q26.7-32.45 26.7-31.7L26.7-31.7Q26.7-31.2 26.2-30.35 25.7-29.5 25.15-29.5L25.15-29.5Q24.8-29.5 24.48-30.13 24.15-30.75 23.45-30.8L23.45-30.8Q22.8-30.9 21.43-30.9 20.05-30.9 19.2-30.9L19.2-30.9Q18.55-30.9 17.98-30.88 17.4-30.85 16.85-30.85L16.85-30.85Q15.55-30.85 14.23-30.88 12.9-30.9 10.7-30.95L10.7-30.95Q10.2-29.2 9.65-26.65 9.1-24.1 8.68-21.58 8.25-19.05 8-17.25L8-17.25Q9.5-17.25 11.6-17.25 13.7-17.25 15.88-17.28 18.05-17.3 19.8-17.32 21.55-17.35 22.3-17.4L22.3-17.4Q22.6-17.4 22.6-17.1L22.6-17.1Q22.6-16.8 22.15-16.32 21.7-15.85 20.7-15.7L20.7-15.7 7.8-15.7Q7.7-14.4 7.5-12.5 7.3-10.6 7.18-8.55 7.05-6.5 7.05-4.65L7.05-4.65Q7.05-3.75 7.1-2.95 7.15-2.15 7.25-1.55L7.25-1.55Q9.05-1.55 12.15-1.53 15.25-1.5 20.25-1.5L20.25-1.5Q21.35-1.5 23.03-1.7 24.7-1.9 26-2.3L26-2.3 26.05-2.3Q26.25-2.3 26.25-1.8L26.25-1.8Q26.25-1.3 25.9-0.65 25.55 0 24.75 0L24.75 0Q23.1 0 21.35 0.03 19.6 0.05 17.8 0.05ZM22.39-34.9L22.39-34.9Q22.55-34.9 22.55-35.06L22.55-35.06Q22.55-35.37 21.52-36.24 20.49-37.12 18.92-38.3 17.35-39.49 15.7-40.57L15.7-40.57Q15.44-40.72 15.24-40.72L15.24-40.72Q14.77-40.72 14.49-40.28 14.21-39.85 14.26-39.43L14.26-39.43 14.26-39.33Q14.26-38.97 14.62-38.76L14.62-38.76Q15.29-38.35 16.68-37.66 18.07-36.96 19.56-36.24 21.05-35.52 22.14-34.95L22.14-34.95Q22.24-34.9 22.39-34.9ZM32.1 0.4L32.1 0.4Q30.8 0.4 29.92-0.45 29.05-1.3 29.05-3.15L29.05-3.15Q29.05-4.95 29.7-7.18 30.35-9.4 31.35-11.53 32.35-13.65 33.37-15.18 34.4-16.7 35.2-17.05L35.2-17.05Q36.75-17.6 37.6-18.18 38.45-18.75 39.7-18.75L39.7-18.75Q40.7-18.75 41.37-18.25 42.05-17.75 42.05-16.4L42.05-16.4Q42.05-16.2 42.05-16.03 42.05-15.85 42-15.6L42-15.6Q41.85-14.7 41.4-14.2 40.95-13.7 40.55-13.7L40.55-13.7Q39.95-13.7 39.95-14.6L39.95-14.6Q39.95-15.1 40.15-15.73 40.35-16.35 40.35-16.85L40.35-16.85Q40.35-17.65 39.5-17.65L39.5-17.65Q39.05-17.65 38.27-17.23 37.5-16.8 36.77-16.25 36.05-15.7 35.7-15.35L35.7-15.35Q35.3-14.95 34.55-13.5 33.8-12.05 33.02-10.1 32.25-8.15 31.7-6.23 31.15-4.3 31.15-2.95L31.15-2.95Q31.15-1.1 32.6-1.1L32.6-1.1Q34.2-1.1 35.55-1.98 36.9-2.85 37.97-3.98 39.05-5.1 39.7-5.98 40.35-6.85 40.5-6.9L40.5-6.9Q40.75-6.8 40.75-6.55L40.75-6.55Q40.75-6.05 40.02-4.93 39.3-3.8 38.07-2.58 36.85-1.35 35.3-0.48 33.75 0.4 32.1 0.4ZM44.35 0.95L44.35 0.95Q43.1 0.95 42.27-0.08 41.45-1.1 41.45-3.25L41.45-3.25Q41.45-3.75 41.5-4.33 41.55-4.9 41.65-5.55L41.65-5.55Q41.8-6.4 42.27-8.03 42.75-9.65 43.5-11.55 44.25-13.45 45.22-15.18 46.2-16.9 47.37-18 48.55-19.1 49.9-19.1L49.9-19.1 50.25-19.1Q50.25-19.75 50.65-20.28 51.05-20.8 51.75-20.8L51.75-20.8Q52.3-20.75 52.55-19.88 52.8-19 52.97-17.88 53.15-16.75 53.5-15.88 53.85-15 54.6-14.9L54.6-14.9Q55.55-14.75 55.55-14.35L55.55-14.35Q55.55-13.95 54.6-13.45L54.6-13.45Q54.25-13.3 53.95-13.25 53.65-13.2 53.45-13.2L53.45-13.2Q53.45-10.05 52.55-7.45 51.65-4.85 50.22-2.98 48.8-1.1 47.25-0.08 45.7 0.95 44.35 0.95ZM45.1-0.55L45.1-0.55Q46-0.55 47.17-1.58 48.35-2.6 49.45-4.42 50.55-6.25 51.3-8.6 52.05-10.95 52.05-13.6L52.05-13.6Q51.65-13.85 51.27-14.65 50.9-15.45 50.6-16.18 50.3-16.9 50.05-16.9L50.05-16.9Q49.35-16.9 48.55-15.93 47.75-14.95 47-13.48 46.25-12 45.6-10.35 44.95-8.7 44.5-7.28 44.05-5.85 43.9-5.1L43.9-5.1Q43.8-4.45 43.75-3.93 43.7-3.4 43.7-3L43.7-3Q43.7-0.55 45.1-0.55ZM55.04 0.85L55.04 0.85Q54.64 0.85 54.39 0.53 54.14 0.2 54.14-0.15L54.14-0.15Q54.14-0.75 54.69-0.75L54.69-0.75Q55.29-0.75 56.52-1 57.74-1.25 59.07-1.68 60.39-2.1 61.34-2.7 62.29-3.3 62.29-4L62.29-4Q62.29-4.65 61.57-5.33 60.84-6 59.79-6.7 58.74-7.4 57.67-8.15 56.59-8.9 55.87-9.73 55.14-10.55 55.14-11.5L55.14-11.5Q55.14-11.9 55.27-12.3 55.39-12.7 55.74-13.1L55.74-13.1Q57.24-15 59.02-16.18 60.79-17.35 62.34-17.98 63.89-18.6 64.69-18.9L64.69-18.9Q64.94-19 65.29-19.07 65.64-19.15 65.99-19.15L65.99-19.15Q66.69-19.15 67.24-18.73 67.79-18.3 67.79-17.15L67.79-17.15Q67.74-16.65 67.39-15.88 67.04-15.1 66.52-14.3 65.99-13.5 65.49-12.98 64.99-12.45 64.64-12.45L64.64-12.45Q64.44-12.45 64.44-12.75L64.44-12.75Q64.44-13.2 64.72-13.9 64.99-14.6 65.27-15.28 65.54-15.95 65.54-16.35L65.54-16.35Q65.54-17.1 64.64-17.1L64.64-17.1Q64.29-17.1 63.87-17.03 63.44-16.95 62.99-16.85L62.99-16.85Q62.69-16.8 61.84-16.43 60.99-16.05 60.04-15.45 59.09-14.85 58.39-14.08 57.69-13.3 57.69-12.4L57.69-12.4Q57.69-11.85 57.94-11.4L57.94-11.4Q58.54-10.2 59.59-9.53 60.64-8.85 61.69-8.33 62.74-7.8 63.47-7.18 64.19-6.55 64.19-5.4L64.19-5.4Q64.19-4.2 63.19-3.08 62.19-1.95 60.67-1.07 59.14-0.2 57.62 0.33 56.09 0.85 55.04 0.85ZM70.44 0.5L70.44 0.5Q69.84 0.5 69.07 0.23 68.29-0.05 67.72-0.78 67.14-1.5 67.14-2.85L67.14-2.85Q67.14-3.4 67.29-4.15L67.29-4.15Q67.79-6.65 68.27-7.95 68.74-9.25 68.84-10.05L68.84-10.05Q68.69-10.1 68.39-10.3 68.09-10.5 68.09-10.85L68.09-10.85Q68.09-11.2 68.39-11.3 68.69-11.4 68.94-11.4L68.94-11.4 69.29-11.4Q69.69-12.25 70.17-13.25 70.64-14.25 71.59-15.95L71.59-15.95Q72.44-17.55 73.82-18.07 75.19-18.6 76.94-18.6L76.94-18.6Q78.64-18.6 79.29-15.55L79.29-15.55Q79.59-14 79.59-13.05L79.59-13.05Q79.59-11.85 78.82-11.15 78.04-10.45 76.92-10.1 75.79-9.75 74.69-9.63 73.59-9.5 72.94-9.5L72.94-9.5Q72.29-9.5 71.82-9.53 71.34-9.55 71.14-9.55L71.14-9.55Q70.39-7.65 69.94-5.9 69.49-4.15 69.49-2.95L69.49-2.95Q69.49-0.95 70.99-0.95L70.99-0.95Q71.89-0.95 72.87-1.75 73.84-2.55 74.74-3.6 75.64-4.65 76.29-5.45 76.94-6.25 77.14-6.25L77.14-6.25Q77.49-6.25 77.49-5.85L77.49-5.85Q77.49-5.15 76.69-4.08 75.89-3 74.72-1.95 73.54-0.9 72.37-0.2 71.19 0.5 70.44 0.5ZM73.59-10.85L73.59-10.85Q75.49-10.85 76.47-11.28 77.44-11.7 77.49-13.15L77.49-13.15Q77.49-15.2 76.97-16.05 76.44-16.9 75.99-16.9L75.99-16.9Q75.39-16.9 74.72-16.18 74.04-15.45 73.42-14.45 72.79-13.45 72.29-12.48 71.79-11.5 71.59-10.95L71.59-10.95Q71.84-10.95 72.39-10.9 72.94-10.85 73.59-10.85ZM79.54 0.3L79.54 0.3Q79.24 0.3 79.09 0.05L79.09 0.05Q79.09-1.25 79.41-2.38 79.74-3.5 80.24-3.7L80.24-3.7Q80.94-6.3 81.29-7.73 81.64-9.15 81.79-9.85 81.94-10.55 82.04-10.98 82.14-11.4 82.29-12L82.29-12Q82.39-12.25 82.39-12.45 82.39-12.65 82.39-12.8L82.39-12.8Q82.39-13.2 82.29-13.28 82.19-13.35 82.19-13.65L82.19-13.65Q82.19-13.75 82.21-13.88 82.24-14 82.29-14.2L82.29-14.2Q83.09-17.3 83.89-18.48 84.69-19.65 86.34-19.65L86.34-19.65Q86.94-19.65 87.04-19.25L87.04-19.25Q86.79-18.55 85.96-16.63 85.14-14.7 84.21-12.15 83.29-9.6 82.69-7L82.69-7Q83.09-7.75 83.96-9.22 84.84-10.7 86.01-12.45 87.19-14.2 88.54-15.78 89.89-17.35 91.16-18.38 92.44-19.4 93.49-19.4L93.49-19.4Q94.09-19.4 94.39-18.98 94.69-18.55 94.69-17.9L94.69-17.9Q94.69-17.25 94.39-16.4 94.09-15.55 93.54-14.75L93.54-14.75Q93.19-14.25 92.51-13.7 91.84-13.15 91.44-13.15L91.44-13.15Q91.14-13.15 91.14-13.45L91.14-13.45Q91.14-13.7 91.39-14.28 91.64-14.85 91.86-15.48 92.09-16.1 92.09-16.5L92.09-16.5Q92.09-16.85 91.84-16.85L91.84-16.85Q90.94-16.85 89.56-15.35 88.19-13.85 86.64-11.43 85.09-9 83.74-6.23 82.39-3.45 81.59-0.9L81.59-0.9Q81.29-0.5 80.64-0.1 79.99 0.3 79.54 0.3ZM95.14 0.55L95.14 0.55Q94.84 0.55 94.84 0.3L94.84 0.3Q94.84-0.2 95.01-0.3 95.19-0.4 95.44-0.63 95.69-0.85 95.94-1.75 96.19-2.65 96.41-4.78 96.64-6.9 96.74-10.8L96.74-10.8Q96.74-11.55 96.64-11.8 96.54-12.05 96.44-12.18 96.34-12.3 96.24-12.65 96.14-13 96.14-13.9L96.14-13.9Q96.14-16.2 96.59-17.23 97.04-18.25 98.59-18.25L98.59-18.25Q99.34-18.25 99.54-17.8L99.54-17.8Q99.04-13.9 98.51-9.93 97.99-5.95 97.64-2.05L97.64-2.05Q97.94-2.35 99.04-3.28 100.14-4.2 101.56-5.75 102.99-7.3 104.39-9.53 105.79-11.75 106.74-14.75L106.74-14.75Q106.79-14.9 106.81-15.05 106.84-15.2 106.84-15.35L106.84-15.35Q106.84-15.85 106.64-16.23 106.44-16.6 106.44-17L106.44-17Q106.44-17.4 106.94-18.15 107.44-18.9 108.09-19.53 108.74-20.15 109.24-20.15L109.24-20.15Q109.79-20.15 109.79-19.1L109.79-19.1Q109.79-18.55 109.64-17.7L109.64-17.7Q109.19-15.2 107.84-12.63 106.49-10.05 104.71-7.7 102.94-5.35 101.06-3.48 99.19-1.6 97.59-0.53 95.99 0.55 95.14 0.55Z" opacity="1" transform="matrix(1,0,0,1,0,0)" fill="black" class="wordmark-text-0"></path></svg></g><g><svg xmlns="http://www.w3.org/2000/svg" xmlns:xlink="http://www.w3.org/1999/xlink" version="1.1" x="189.1253930419922" y="0" viewBox="0 0 30 30.008" enable-background="new 0 0 30 30" xml:space="preserve" width="67.40642741850871" height="67.42440246582032" class="icon-cg-0" data-fill-palette-color="accent" id="SvgjsSvg1028"><path d="M26.217 15.473c-0.164 4.028-2.465 7.512-5.793 9.356-1.7-1.347-3.636-2.079-5.355-2.079-1.73 0-3.721 0.746-5.435 2.111-3.487-1.905-5.859-5.608-5.859-9.856C3.776 8.813 8.811 3.778 15 3.778c1.578 0 3.108 0.326 4.551 0.968l0.517 0.23-0.776 1.568 5.925-1.038-2.661-5.49-0.797 1.585L21.28 1.38C19.295 0.464 17.184 0 15 0 6.73 0 0 6.732 0 15.004s6.73 15.004 15.001 15.004c8.145 0 14.792-6.523 14.999-14.619L26.217 15.473zM7.328 12.588c0.84 1.963 0.26 3.787 0.754 4.85 0.711 1.525 2.914 2.326 5.348 2.051 0 0 0.868 1.168 1.042 2.848h1.33c0.102-1.688 1.963-4.871 1.963-4.871 2.944 0.358 8.42 1.031 6.712-9.096-0.862 1.056-2.201 1.332-5.1 1.71-2.706 0.356-4.356 4.145-2.467 6.366 0.878-1.07 1.769-1.828 3.338-2.827-3.466 3.1-4.782 6.476-5.103 7.472v-0.003c-0.857-2.054-1.936-3.275-3.509-4.39 0.896 0.337 1.838 0.837 2.455 1.503C15.487 15.277 12.886 12.73 7.328 12.588L7.328 12.588z" fill="white"></path></svg></g></svg></g></svg></g></svg></g></svg></g><g></g></svg></g><defs><mask></mask></defs></svg><rect width="256.5318204605009" height="67.42440246582032" fill="black" stroke="none" visibility="hidden"></rect></g></mask><linearGradient x1="0" x2="1" y1="0.578" y2="0.595" id="e6ac1d71-1cec-4701-810d-b4b91a2e1d1c"><stop stop-color="#dede50" offset="0"></stop><stop stop-color="#559c49" offset="1"></stop></linearGradient><rect width="256.5318204605009" height="67.42440246582032" fill="url(#e6ac1d71-1cec-4701-810d-b4b91a2e1d1c)" mask="url(#10c8f89f-b075-4b7a-af91-be8ada5bf886)" data-fill-palette-color="accent"></rect></svg><rect width="256.5318204605009" height="67.42440246582032" fill="none" stroke="none" visibility="hidden"></rect></g></svg></g></svg>